<svg id="Layer_2" data-name="Layer 2" xmlns="http://www.w3.org/2000/svg" xmlns:xlink="http://www.w3.org/1999/xlink" viewBox="0 0 190.09 257.19"><defs><style>.cls-1{fill:none;}.cls-2{fill:#98c1d9;}.cls-3{clip-path:url(#clip-path);}.cls-4{fill:#ee6c4d;}.cls-5{clip-path:url(#clip-path-2);}</style><clipPath id="clip-path" transform="translate(-35.76 -28.7)"><rect class="cls-1" x="35.76" y="28.7" width="189.54" height="260.5"/></clipPath><clipPath id="clip-path-2" transform="translate(-35.76 -28.7)"><rect class="cls-1" x="73.68" y="110.32" width="113.72" height="110.6"/></clipPath></defs><title>logo_extractpdf</title><polygon class="cls-2" points="183.51 246.48 9.45 246.48 9.45 0.61 145.6 0.61 182.94 43.7 183.51 246.48"/><g class="cls-3"><path class="cls-4" d="M181,28.7H51.53A15.79,15.79,0,0,0,35.76,44.46V270.13a15.79,15.79,0,0,0,15.76,15.76H210.09a15.79,15.79,0,0,0,15.77-15.76V77.46Zm3.73,23.6,19.67,21.39H184.7V52.3Zm27.91,217.81a2.53,2.53,0,0,1-2.52,2.53H51.53A2.53,2.53,0,0,1,49,270.11V44.46a2.52,2.52,0,0,1,2.52-2.52H171.44V80.31a6.63,6.63,0,0,0,6.64,6.61h34.53v183.2ZM189.81,202.5" transform="translate(-35.76 -28.7)"/></g><circle class="cls-4" cx="94.77" cy="136.92" r="70.38"/><g class="cls-5"><path class="cls-2" d="M135.42,221a7.24,7.24,0,0,0,7.25-7.25v-60.1l25.5,25.5a7.31,7.31,0,0,0,10.28,0l6.84-6.84a7.31,7.31,0,0,0,0-10.28l-49.54-49.54a7.22,7.22,0,0,0-10.24,0L76,162a7.31,7.31,0,0,0,0,10.28l6.84,6.84a7.31,7.31,0,0,0,10.28,0l25.41-25.5v60.06a7.26,7.26,0,0,0,7.25,7.25Zm0,0" transform="translate(-35.76 -28.7)"/></g></svg>